<svg width="165" height="52" viewBox="0 0 165 52" fill="none" xmlns="http://www.w3.org/2000/svg">
<path d="M9.00609 36L19.9961 11.325H23.0061L34.0311 36H30.3211L27.3111 29L28.9561 29.98H14.0461L15.6561 29L12.6811 36H9.00609ZM21.4661 15.35L16.1811 27.88L15.3061 27.04H27.6611L26.8561 27.88L21.5361 15.35H21.4661ZM47.1326 36V30.995H36.0376V28.3L47.7626 11.325H50.7376V27.95H54.3426V30.995H50.7376V36H47.1326ZM47.1326 27.95V15.665H48.0776L38.9776 28.93V27.95H47.1326ZM67.2332 36V18.92H82.7032V36H79.1682V21.755H70.7682V36H67.2332ZM95.4353 36.315C93.7086 36.315 92.2153 35.9533 90.9553 35.23C89.7186 34.5067 88.7503 33.48 88.0503 32.15C87.3503 30.82 87.0003 29.2567 87.0003 27.46C87.0003 25.64 87.3503 24.0767 88.0503 22.77C88.7503 21.44 89.7186 20.4133 90.9553 19.69C92.2153 18.9667 93.7086 18.605 95.4353 18.605C97.1386 18.605 98.6086 18.9667 99.8453 19.69C101.105 20.4133 102.085 21.44 102.785 22.77C103.485 24.1 103.835 25.6633 103.835 27.46C103.835 29.2567 103.485 30.82 102.785 32.15C102.085 33.48 101.105 34.5067 99.8453 35.23C98.6086 35.9533 97.1386 36.315 95.4353 36.315ZM95.4003 33.585C96.8703 33.585 98.0486 33.06 98.9353 32.01C99.822 30.96 100.265 29.4433 100.265 27.46C100.265 25.4533 99.822 23.9367 98.9353 22.91C98.0486 21.8833 96.8703 21.37 95.4003 21.37C93.9536 21.37 92.787 21.8833 91.9003 22.91C91.0136 23.9367 90.5703 25.4533 90.5703 27.46C90.5703 29.4433 91.0136 30.96 91.9003 32.01C92.787 33.06 93.9536 33.585 95.4003 33.585ZM119.031 36V29.42C118.401 29.77 117.724 30.0383 117.001 30.225C116.301 30.4117 115.554 30.505 114.761 30.505C113.127 30.505 111.762 30.2367 110.666 29.7C109.592 29.1633 108.787 28.37 108.251 27.32C107.737 26.2467 107.481 24.905 107.481 23.295V18.92H111.016V23.015C111.016 24.065 111.156 24.94 111.436 25.64C111.739 26.3167 112.206 26.8183 112.836 27.145C113.466 27.4483 114.294 27.6 115.321 27.6C116.067 27.6 116.732 27.5183 117.316 27.355C117.899 27.1683 118.459 26.8883 118.996 26.515V18.92H122.531V36H119.031ZM131.404 36V21.755H125.384V18.92H140.994V21.755H134.939V36H131.404ZM149.325 36.315C148.135 36.315 147.062 36.0817 146.105 35.615C145.172 35.1483 144.437 34.5183 143.9 33.725C143.363 32.9317 143.095 32.0333 143.095 31.03C143.095 29.77 143.41 28.7783 144.04 28.055C144.693 27.3083 145.755 26.7833 147.225 26.48C148.718 26.1533 150.725 25.99 153.245 25.99H154.89V28.16H153.28C152.02 28.16 150.958 28.2067 150.095 28.3C149.232 28.3933 148.543 28.545 148.03 28.755C147.517 28.9417 147.143 29.21 146.91 29.56C146.7 29.91 146.595 30.33 146.595 30.82C146.595 31.7067 146.898 32.43 147.505 32.99C148.112 33.5267 148.952 33.795 150.025 33.795C150.888 33.795 151.647 33.5967 152.3 33.2C152.953 32.78 153.467 32.22 153.84 31.52C154.237 30.82 154.435 30.015 154.435 29.105V25.08C154.435 23.75 154.155 22.7933 153.595 22.21C153.035 21.6267 152.113 21.335 150.83 21.335C149.85 21.335 148.87 21.4867 147.89 21.79C146.91 22.07 145.907 22.525 144.88 23.155L143.795 20.67C144.402 20.25 145.102 19.8883 145.895 19.585C146.688 19.2817 147.517 19.0483 148.38 18.885C149.267 18.6983 150.118 18.605 150.935 18.605C152.498 18.605 153.782 18.85 154.785 19.34C155.812 19.83 156.57 20.5767 157.06 21.58C157.55 22.5833 157.795 23.8783 157.795 25.465V36H154.47V32.185H154.785C154.598 33.0483 154.248 33.795 153.735 34.425C153.245 35.0317 152.627 35.4983 151.88 35.825C151.133 36.1517 150.282 36.315 149.325 36.315Z" fill="#F7F5FC"/>
<path d="M1.00003 46.1656C52.9446 35.4266 64.4253 41.5727 63.6726 45.9882" stroke="#F7F5FC" stroke-width="3"/>
</svg>
