<svg width="48" height="48" viewBox="0 0 48 48" fill="none" xmlns="http://www.w3.org/2000/svg">
<rect x="1" y="1" width="46" height="46" rx="23" fill="#D1EBC8"/>
<rect x="1" y="1" width="46" height="46" rx="23" stroke="white" stroke-width="2"/>
<path d="M9.59206 31L16.0794 16.6627H18.2148L24.7022 31H22.0584L20.3298 26.9733L21.428 27.6851H12.8459L13.9441 26.9733L12.2358 31H9.59206ZM17.1166 19.4895L14.2695 26.2616L13.7407 25.6108H20.5332L20.0247 26.2616L17.1573 19.4895H17.1166ZM26.2709 31V16.6627H28.874V22.7433H31.1924L30.684 23.0891L34.7513 16.6627H37.6188L33.0837 23.5975L32.0669 22.845C32.6499 22.9264 33.1718 23.0958 33.6328 23.3534C34.0938 23.611 34.5073 23.95 34.8733 24.3703C35.253 24.7906 35.5851 25.299 35.8698 25.8955L38.3509 31H35.5241L33.6125 26.8717C33.2871 26.1667 32.8939 25.665 32.4329 25.3668C31.9855 25.0685 31.4229 24.9193 30.745 24.9193H28.874V31H26.2709Z" fill="#7FB46D"/>
</svg>
