<svg width="75" height="44" viewBox="0 0 75 44" fill="none" xmlns="http://www.w3.org/2000/svg">
<path d="M0.688477 40.4873C30.705 34.1131 49.1664 32.6968 60.0742 33.5732C65.5119 34.0102 69.2202 35.0263 71.5586 36.4004C73.931 37.7947 75.1334 39.7446 74.7744 41.8721L73.2949 41.623L71.8154 41.373C71.8946 40.9043 71.7723 40.0054 70.0381 38.9863C68.2691 37.9469 65.0858 36.9856 59.833 36.5635C49.3592 35.722 31.2343 37.0676 1.31152 43.4219L0.688477 40.4873ZM37.3213 29H33.0811L30.123 22.1201H15.8447L12.9209 29H8.72168L21.2812 0.799805H24.7217L37.3213 29ZM56.4141 19.7998H60.5342V23.2803H56.4141V29H52.2939V23.2803H39.6143V20.2002L53.0146 0.799805H56.4141V19.7998ZM43.7432 19.7998H52.2939V7.33398L43.7432 19.7998ZM17.3262 18.7598H28.7139L23.041 5.40039H22.9609L17.3262 18.7598Z" fill="#5163EB"/>
</svg>
