<svg width="195" height="195" viewBox="0 0 195 195" fill="none" xmlns="http://www.w3.org/2000/svg">
<path d="M97.2038 187.204C106.174 149.08 142.055 104.229 186.906 97.5017" stroke="#5163EB" stroke-width="15" stroke-linecap="round"/>
<path d="M97.2039 7.50169C88.2337 45.6251 52.3528 90.4762 7.50171 97.2039" stroke="#5163EB" stroke-width="15" stroke-linecap="round"/>
<path d="M112.754 30.4157C118.323 41.4122 126.282 51.538 135.697 60.3249C151.657 75.2204 171.254 85.746 188.922 89.903C192.953 90.8519 195.453 94.8897 194.505 98.9216C193.556 102.954 189.518 105.453 185.486 104.505C165.03 99.6915 143.14 87.7908 125.462 71.2907C117.469 63.8309 110.226 55.3235 104.348 45.9734C107.52 40.8857 110.335 35.6693 112.754 30.4157ZM96.3894 0.0846863C100.486 -0.529468 104.304 2.29323 104.919 6.38937C104.988 6.85248 105.063 7.31465 105.141 7.77609C103.147 15.1001 100.101 22.6954 96.1414 30.1794C93.2888 23.3034 91.2068 16.0943 90.0847 8.61398C89.4704 4.51777 92.2932 0.699121 96.3894 0.0846863Z" fill="#5163EB"/>
<path d="M7.50169 97.5017C45.6251 106.472 90.4762 142.353 97.2039 187.204" stroke="#5163EB" stroke-width="15" stroke-linecap="round"/>
</svg>
