<svg width="44" height="44" viewBox="0 0 44 44" fill="none" xmlns="http://www.w3.org/2000/svg">
<path d="M22 42C20 33.5 12 23.5 2 22" stroke="#5163EB" stroke-width="4"/>
<path d="M22 2C20 10.5 12 20.5 2 22" stroke="#5163EB" stroke-width="4" stroke-linecap="round"/>
<path d="M22 42C24 33.5 32 23.5 42 22" stroke="#5163EB" stroke-width="4" stroke-linecap="round"/>
<path d="M25.7441 6.80469C26.8456 9.36033 28.6627 12.0137 31.0342 14.2871C34.125 17.2501 38.0254 19.4484 42.2656 20.0176L41.7344 23.9824C36.4748 23.2765 31.8247 20.5867 28.2656 17.1748C26.3779 15.3651 24.7635 13.3163 23.5039 11.1914C23.9433 10.5722 24.3407 9.9474 24.7021 9.26074C25.0926 8.51886 25.43 7.72312 25.7441 6.80469ZM23.1885 4.95117C22.8277 6.17202 22.4625 7.07639 22.0479 7.86426C22.0111 7.934 21.9714 8.00172 21.9336 8.07031C21.5797 7.21316 21.2883 6.35612 21.0654 5.50879L23.1885 4.95117Z" fill="#5163EB"/>
</svg>
